<svg width="128" height="128" viewBox="0 0 128 128" fill="none" xmlns="http://www.w3.org/2000/svg">
    <circle cx="64" cy="64" r="64" fill="#ECFEFF"/>
    <circle cx="64" cy="64" r="62" stroke="#CFFAFE" stroke-width="2"/>
    
    <path d="M64 36C52.9543 36 44 44.9543 44 56V66C44 74.8366 51.1634 82 60 82H68C76.8366 82 84 74.8366 84 66V56C84 44.9543 75.0457 36 64 36Z" fill="white"/>
    <path d="M44 66V108C44 119.046 52.9543 128 64 128H64C75.0457 128 84 119.046 84 108V66" fill="white"/>
    
    <path d="M64 82L58 66H70L64 82Z" fill="#0891B2"/>
    <path d="M64 36V56" stroke="#0891B2" stroke-width="2"/>
    
    <path d="M84 56C84 56 88 56 88 68C88 80 76 90 64 90C52 90 40 80 40 68C40 56 44 56 44 56" stroke="#0E7490" stroke-width="4" stroke-linecap="round"/>
    <circle cx="64" cy="94" r="6" fill="#0E7490"/>
    
    <circle cx="64" cy="28" r="16" fill="white" stroke="#0891B2" stroke-width="2"/>
</svg>